<svg width="45" height="45" viewBox="0 0 45 45" fill="none" xmlns="http://www.w3.org/2000/svg">
<path d="M40.6534 44.2959L26.3352 29.9573C25.0568 30.9815 23.5866 31.7923 21.9247 32.3898C20.2628 32.9872 18.4943 33.2859 16.6193 33.2859C11.9744 33.2859 8.04375 31.6754 4.82727 28.4543C1.60909 25.2316 0 21.2945 0 16.643C0 11.9915 1.60909 8.05434 4.82727 4.83158C8.04375 1.61053 11.9744 0 16.6193 0C21.2642 0 25.1957 1.61053 28.4139 4.83158C31.6304 8.05434 33.2386 11.9915 33.2386 16.643C33.2386 18.5206 32.9403 20.2916 32.3437 21.9559C31.7472 23.6202 30.9375 25.0925 29.9148 26.3727L44.2969 40.7752C44.7656 41.2447 45 41.8208 45 42.5036C45 43.1863 44.7443 43.7838 44.2329 44.2959C43.7642 44.7653 43.1676 45 42.4432 45C41.7187 45 41.1222 44.7653 40.6534 44.2959ZM16.6193 28.165C19.8153 28.165 22.5324 27.0452 24.7705 24.8057C27.0068 22.5644 28.125 19.8435 28.125 16.643C28.125 13.4424 27.0068 10.7215 24.7705 8.48023C22.5324 6.24068 19.8153 5.12091 16.6193 5.12091C13.4233 5.12091 10.7062 6.24068 8.46818 8.48023C6.23182 10.7215 5.11364 13.4424 5.11364 16.643C5.11364 19.8435 6.23182 22.5644 8.46818 24.8057C10.7062 27.0452 13.4233 28.165 16.6193 28.165Z" fill="white"/>
</svg>
